<?xml version="1.0" encoding="utf-8"?>
<!-- Generator: Adobe Illustrator 17.1.0, SVG Export Plug-In . SVG Version: 6.00 Build 0)  -->
<!DOCTYPE svg PUBLIC "-//W3C//DTD SVG 1.1//EN" "http://www.w3.org/Graphics/SVG/1.1/DTD/svg11.dtd">
<svg version="1.1" id="Layer_1" xmlns="http://www.w3.org/2000/svg" xmlns:xlink="http://www.w3.org/1999/xlink" x="0px" y="0px"
	 viewBox="0 0 1280 800" enable-background="new 0 0 1280 800" xml:space="preserve">
<g>
	<polygon fill="none" stroke="#000000" stroke-miterlimit="10" points="706.1,715.8 541.3,699.8 406.5,603.5 338,452.8 353.9,288 
		450.2,153.3 600.9,84.7 765.7,100.7 900.4,196.9 969,347.7 953,512.5 856.8,647.2 	"/>
	<polygon fill="none" stroke="#000000" stroke-miterlimit="10" points="381.3,298.9 468.4,176.4 605.1,113.8 754.8,128 877.3,215.2 
		939.9,351.9 925.7,501.6 838.5,624.1 701.8,686.6 552.1,672.4 429.6,585.3 367.1,448.6 	"/>
	<polygon fill="none" stroke="#000000" stroke-miterlimit="10" points="408.6,309.8 486.7,199.4 609.4,142.9 744,155.4 854.3,233.4 
		910.8,356.2 898.3,490.7 820.3,601 697.5,657.5 563,645.1 452.7,567 396.2,444.3 	"/>
	<polygon fill="none" stroke="#000000" stroke-miterlimit="10" points="436,320.6 504.9,222.5 613.7,172.1 733.1,182.7 831.2,251.7 
		881.7,360.4 871,479.9 802,578 693.3,628.4 573.8,617.8 475.8,548.8 425.3,440 	"/>
	<polygon fill="none" stroke="#000000" stroke-miterlimit="10" points="463.3,331.5 523.2,245.6 617.9,201.2 722.2,210.1 
		808.1,269.9 852.5,364.7 843.6,469 783.8,554.9 689,599.3 584.7,590.4 498.8,530.6 454.4,435.8 	"/>
	<polygon fill="none" stroke="#000000" stroke-miterlimit="10" points="490.6,342.3 541.4,268.7 622.2,230.3 711.4,237.4 785,288.2 
		823.4,369 816.3,458.1 765.5,531.8 684.7,570.2 595.6,563.1 521.9,512.3 483.5,431.5 	"/>
	<polygon fill="none" stroke="#000000" stroke-miterlimit="10" points="518,353.2 559.6,291.8 626.5,259.4 700.5,264.8 761.9,306.4 
		794.3,373.2 789,447.3 747.3,508.7 680.5,541.1 606.4,535.7 545,494.1 512.6,427.3 	"/>
	<polygon fill="none" stroke="#000000" stroke-miterlimit="10" points="545.3,364.1 577.9,314.8 630.7,288.5 689.6,292.1 
		738.9,324.7 765.2,377.5 761.6,436.4 729,485.6 676.2,512 617.3,508.4 568.1,475.8 541.7,423 	"/>
	<polygon fill="none" stroke="#000000" stroke-miterlimit="10" points="572.7,374.9 596.1,337.9 635,317.6 678.8,319.4 715.8,342.9 
		736.1,381.7 734.3,425.5 710.8,462.6 672,482.9 628.2,481 591.2,457.6 570.8,418.7 	"/>
	<polygon fill="none" stroke="#000000" stroke-miterlimit="10" points="600,385.8 614.4,361 639.2,346.7 667.9,346.8 692.7,361.2 
		707,386 706.9,414.7 692.6,439.5 667.7,453.8 639,453.7 614.2,439.3 599.9,414.5 	"/>
	<polygon fill="none" stroke="#000000" stroke-miterlimit="10" points="627.3,396.7 632.6,384.1 643.5,375.8 657,374.1 669.6,379.4 
		677.9,390.3 679.6,403.8 674.3,416.4 663.4,424.7 649.9,426.4 637.3,421.1 629.1,410.2 	"/>
	<polygon fill="none" stroke="#000000" stroke-miterlimit="10" points="654.7,407.5 650.9,407.2 647.8,404.9 646.2,401.5 
		646.5,397.6 648.8,394.5 652.3,392.9 656.1,393.3 659.2,395.5 660.8,399 660.4,402.8 658.2,406 	"/>
</g>
</svg>
